<svg xmlns="http://www.w3.org/2000/svg"
     xmlns:xlink="http://www.w3.org/1999/xlink"
     viewBox="0 0 900 260" width="900" height="260"
     style="border-radius:12px;overflow:hidden;background:#1e272e">
  <defs>
    <linearGradient id="sky" x1="0" y1="0" x2="0" y2="1">
      <stop offset="0%" stop-color="#1b324f"/>
      <stop offset="100%" stop-color="#0c1a2b"/>
    </linearGradient>
    <filter id="glow">
      <feGaussianBlur in="SourceGraphic" stdDeviation="2" result="blur"/>
      <feMerge><feMergeNode in="blur"/><feMergeNode in="SourceGraphic"/></feMerge>
    </filter>
  </defs>

  <!-- Terrarium Glass Backing Sky -->
  <rect width="900" height="260" fill="url(#sky)"/>

  <!-- Plants & Mushrooms in the background -->
  <path class="plant" d="M 8.653846153846153,210 Q 5.653846153846153,201 8.653846153846153,192 T 11.653846153846153,188" fill="none" stroke="#e74c3c" stroke-width="2.5" stroke-linecap="round"/>
  
        <line x1="25.96153846153846" y1="210" x2="25.96153846153846" y2="190" stroke="#78e08f" stroke-width="1.5" stroke-linecap="round"/>
        <circle class="plant" cx="25.96153846153846" cy="190" r="4" fill="#27ae60"/>
        <circle cx="25.96153846153846" cy="190" r="1.5" fill="#fff"/>
      
  <path class="plant" d="M 43.26923076923077,210 Q 40.26923076923077,205 43.26923076923077,200 T 46.26923076923077,196" fill="none" stroke="#e67e22" stroke-width="2.5" stroke-linecap="round"/>
  
  
  
  
  
  
  
  
  
  <path class="plant" d="M 216.34615384615384,210 Q 213.34615384615384,205 216.34615384615384,200 T 219.34615384615384,196" fill="none" stroke="#27ae60" stroke-width="2.5" stroke-linecap="round"/>
  <path class="plant" d="M 233.65384615384616,210 Q 230.65384615384616,203 233.65384615384616,196 T 236.65384615384616,192" fill="none" stroke="#e67e22" stroke-width="2.5" stroke-linecap="round"/>
  
  
  
  
  
  
  
  
  <path class="plant" d="M 389.42307692307685,210 Q 386.42307692307685,202 389.42307692307685,194 T 392.42307692307685,190" fill="none" stroke="#27ae60" stroke-width="2.5" stroke-linecap="round"/>
  
        <line x1="406.73076923076917" y1="210" x2="406.73076923076917" y2="191" stroke="#78e08f" stroke-width="1.5" stroke-linecap="round"/>
        <circle class="plant" cx="406.73076923076917" cy="191" r="4" fill="#e74c3c"/>
        <circle cx="406.73076923076917" cy="191" r="1.5" fill="#fff"/>
      
  <path class="plant" d="M 424.0384615384615,210 Q 421.0384615384615,205 424.0384615384615,200 T 427.0384615384615,196" fill="none" stroke="#27ae60" stroke-width="2.5" stroke-linecap="round"/>
  
        <path d="M 438.3461538461538,210 L 439.3461538461538,184 L 443.3461538461538,184 L 444.3461538461538,210 Z" fill="#f5f6fa"/>
        <path class="plant" d="M 433.3461538461538,184 C -8,-20 8,-20 449.3461538461538,184 Z" fill="#e67e22" transform="translate(441.3461538461538, 184) translate(-441.3461538461538, -184)"/>
        <circle cx="439.3461538461538" cy="181" r="1" fill="#fff"/>
        <circle cx="444.3461538461538" cy="182" r="0.8" fill="#fff"/>
      
  
        <path d="M 455.65384615384613,210 L 456.65384615384613,185 L 460.65384615384613,185 L 461.65384615384613,210 Z" fill="#f5f6fa"/>
        <path class="plant" d="M 450.65384615384613,185 C -8,-20 8,-20 466.65384615384613,185 Z" fill="#f1c40f" transform="translate(458.65384615384613, 185) translate(-458.65384615384613, -185)"/>
        <circle cx="456.65384615384613" cy="182" r="1" fill="#fff"/>
        <circle cx="461.65384615384613" cy="183" r="0.8" fill="#fff"/>
      
  <path class="plant" d="M 475.9615384615384,210 Q 472.9615384615384,202 475.9615384615384,194 T 478.9615384615384,190" fill="none" stroke="#2ecc71" stroke-width="2.5" stroke-linecap="round"/>
  <path class="plant" d="M 493.2692307692307,210 Q 490.2692307692307,202 493.2692307692307,194 T 496.2692307692307,190" fill="none" stroke="#27ae60" stroke-width="2.5" stroke-linecap="round"/>
  <path class="plant" d="M 510.57692307692304,210 Q 507.57692307692304,202 510.57692307692304,194 T 513.5769230769231,190" fill="none" stroke="#f1c40f" stroke-width="2.5" stroke-linecap="round"/>
  
  <path class="plant" d="M 545.1923076923077,210 Q 542.1923076923077,201 545.1923076923077,192 T 548.1923076923077,188" fill="none" stroke="#9b59b6" stroke-width="2.5" stroke-linecap="round"/>
  <path class="plant" d="M 562.5,210 Q 559.5,201 562.5,192 T 565.5,188" fill="none" stroke="#2ecc71" stroke-width="2.5" stroke-linecap="round"/>
  
        <path d="M 576.8076923076923,210 L 577.8076923076923,186 L 581.8076923076923,186 L 582.8076923076923,210 Z" fill="#f5f6fa"/>
        <path class="plant" d="M 571.8076923076923,186 C -8,-20 8,-20 587.8076923076923,186 Z" fill="#f1c40f" transform="translate(579.8076923076923, 186) translate(-579.8076923076923, -186)"/>
        <circle cx="577.8076923076923" cy="183" r="1" fill="#fff"/>
        <circle cx="582.8076923076923" cy="184" r="0.8" fill="#fff"/>
      
  <path class="plant" d="M 597.1153846153846,210 Q 594.1153846153846,205 597.1153846153846,200 T 600.1153846153846,196" fill="none" stroke="#9b59b6" stroke-width="2.5" stroke-linecap="round"/>
  
        <line x1="614.4230769230769" y1="210" x2="614.4230769230769" y2="190" stroke="#78e08f" stroke-width="1.5" stroke-linecap="round"/>
        <circle class="plant" cx="614.4230769230769" cy="190" r="4" fill="#9b59b6"/>
        <circle cx="614.4230769230769" cy="190" r="1.5" fill="#fff"/>
      
  
        <path d="M 628.7307692307693,210 L 629.7307692307693,185 L 633.7307692307693,185 L 634.7307692307693,210 Z" fill="#f5f6fa"/>
        <path class="plant" d="M 623.7307692307693,185 C -8,-20 8,-20 639.7307692307693,185 Z" fill="#2ecc71" transform="translate(631.7307692307693, 185) translate(-631.7307692307693, -185)"/>
        <circle cx="629.7307692307693" cy="182" r="1" fill="#fff"/>
        <circle cx="634.7307692307693" cy="183" r="0.8" fill="#fff"/>
      
  
        <path d="M 646.0384615384615,210 L 647.0384615384615,170 L 651.0384615384615,170 L 652.0384615384615,210 Z" fill="#f5f6fa"/>
        <path class="plant" d="M 641.0384615384615,170 C -8,-20 8,-20 657.0384615384615,170 Z" fill="#e67e22" transform="translate(649.0384615384615, 170) translate(-649.0384615384615, -170)"/>
        <circle cx="647.0384615384615" cy="167" r="1" fill="#fff"/>
        <circle cx="652.0384615384615" cy="168" r="0.8" fill="#fff"/>
      
  
        <path d="M 663.3461538461538,210 L 664.3461538461538,174 L 668.3461538461538,174 L 669.3461538461538,210 Z" fill="#f5f6fa"/>
        <path class="plant" d="M 658.3461538461538,174 C -8,-20 8,-20 674.3461538461538,174 Z" fill="#e67e22" transform="translate(666.3461538461538, 174) translate(-666.3461538461538, -174)"/>
        <circle cx="664.3461538461538" cy="171" r="1" fill="#fff"/>
        <circle cx="669.3461538461538" cy="172" r="0.8" fill="#fff"/>
      
  
        <path d="M 680.6538461538462,210 L 681.6538461538462,178 L 685.6538461538462,178 L 686.6538461538462,210 Z" fill="#f5f6fa"/>
        <path class="plant" d="M 675.6538461538462,178 C -8,-20 8,-20 691.6538461538462,178 Z" fill="#e67e22" transform="translate(683.6538461538462, 178) translate(-683.6538461538462, -178)"/>
        <circle cx="681.6538461538462" cy="175" r="1" fill="#fff"/>
        <circle cx="686.6538461538462" cy="176" r="0.8" fill="#fff"/>
      
  
        <path d="M 697.9615384615385,210 L 698.9615384615385,184 L 702.9615384615385,184 L 703.9615384615385,210 Z" fill="#f5f6fa"/>
        <path class="plant" d="M 692.9615384615385,184 C -8,-20 8,-20 708.9615384615385,184 Z" fill="#2ecc71" transform="translate(700.9615384615385, 184) translate(-700.9615384615385, -184)"/>
        <circle cx="698.9615384615385" cy="181" r="1" fill="#fff"/>
        <circle cx="703.9615384615385" cy="182" r="0.8" fill="#fff"/>
      
  
        <path d="M 715.2692307692307,210 L 716.2692307692307,183 L 720.2692307692307,183 L 721.2692307692307,210 Z" fill="#f5f6fa"/>
        <path class="plant" d="M 710.2692307692307,183 C -8,-20 8,-20 726.2692307692307,183 Z" fill="#f1c40f" transform="translate(718.2692307692307, 183) translate(-718.2692307692307, -183)"/>
        <circle cx="716.2692307692307" cy="180" r="1" fill="#fff"/>
        <circle cx="721.2692307692307" cy="181" r="0.8" fill="#fff"/>
      
  
        <path d="M 732.5769230769231,210 L 733.5769230769231,177 L 737.5769230769231,177 L 738.5769230769231,210 Z" fill="#f5f6fa"/>
        <path class="plant" d="M 727.5769230769231,177 C -8,-20 8,-20 743.5769230769231,177 Z" fill="#e67e22" transform="translate(735.5769230769231, 177) translate(-735.5769230769231, -177)"/>
        <circle cx="733.5769230769231" cy="174" r="1" fill="#fff"/>
        <circle cx="738.5769230769231" cy="175" r="0.8" fill="#fff"/>
      
  
        <path d="M 749.8846153846154,210 L 750.8846153846154,181 L 754.8846153846154,181 L 755.8846153846154,210 Z" fill="#f5f6fa"/>
        <path class="plant" d="M 744.8846153846154,181 C -8,-20 8,-20 760.8846153846154,181 Z" fill="#e74c3c" transform="translate(752.8846153846154, 181) translate(-752.8846153846154, -181)"/>
        <circle cx="750.8846153846154" cy="178" r="1" fill="#fff"/>
        <circle cx="755.8846153846154" cy="179" r="0.8" fill="#fff"/>
      
  
        <path d="M 767.1923076923076,210 L 768.1923076923076,185 L 772.1923076923076,185 L 773.1923076923076,210 Z" fill="#f5f6fa"/>
        <path class="plant" d="M 762.1923076923076,185 C -8,-20 8,-20 778.1923076923076,185 Z" fill="#f1c40f" transform="translate(770.1923076923076, 185) translate(-770.1923076923076, -185)"/>
        <circle cx="768.1923076923076" cy="182" r="1" fill="#fff"/>
        <circle cx="773.1923076923076" cy="183" r="0.8" fill="#fff"/>
      
  <path class="plant" d="M 787.5,210 Q 784.5,205 787.5,200 T 790.5,196" fill="none" stroke="#e74c3c" stroke-width="2.5" stroke-linecap="round"/>
  
        <line x1="804.8076923076923" y1="210" x2="804.8076923076923" y2="189" stroke="#78e08f" stroke-width="1.5" stroke-linecap="round"/>
        <circle class="plant" cx="804.8076923076923" cy="189" r="4" fill="#9b59b6"/>
        <circle cx="804.8076923076923" cy="189" r="1.5" fill="#fff"/>
      
  <path class="plant" d="M 822.1153846153846,210 Q 819.1153846153846,201 822.1153846153846,192 T 825.1153846153846,188" fill="none" stroke="#e67e22" stroke-width="2.5" stroke-linecap="round"/>
  
        <line x1="839.4230769230769" y1="210" x2="839.4230769230769" y2="190" stroke="#78e08f" stroke-width="1.5" stroke-linecap="round"/>
        <circle class="plant" cx="839.4230769230769" cy="190" r="4" fill="#2ecc71"/>
        <circle cx="839.4230769230769" cy="190" r="1.5" fill="#fff"/>
      
  
        <line x1="856.7307692307692" y1="210" x2="856.7307692307692" y2="189" stroke="#78e08f" stroke-width="1.5" stroke-linecap="round"/>
        <circle class="plant" cx="856.7307692307692" cy="189" r="4" fill="#f1c40f"/>
        <circle cx="856.7307692307692" cy="189" r="1.5" fill="#fff"/>
      
  
        <path d="M 871.0384615384615,210 L 872.0384615384615,185 L 876.0384615384615,185 L 877.0384615384615,210 Z" fill="#f5f6fa"/>
        <path class="plant" d="M 866.0384615384615,185 C -8,-20 8,-20 882.0384615384615,185 Z" fill="#f1c40f" transform="translate(874.0384615384615, 185) translate(-874.0384615384615, -185)"/>
        <circle cx="872.0384615384615" cy="182" r="1" fill="#fff"/>
        <circle cx="877.0384615384615" cy="183" r="0.8" fill="#fff"/>
      
  

  <!-- Dirt / Grass Ground bed -->
  <rect x="0" y="210" width="900" height="50" fill="#566573"/>
  <!-- Grass blades along the top edge of ground -->
  <path d="M 0,210 Q 25,205 50,210 T 100,210 T 150,210 T 200,210 T 250,210 T 300,210 T 350,210 T 400,210 T 450,210 T 500,210 T 550,210 T 600,210 T 650,210 T 700,210 T 750,210 T 800,210 T 850,210 T 900,210" fill="none" stroke="#2ecc71" stroke-width="2"/>

  <!-- Dust bunnies (messy unresolved bugs) floating around -->
  
      <g transform="translate(212, 168)" class="dust-bunny" style="animation-delay:0.0s">
        <!-- Spiky dust bunny -->
        <circle cx="0" cy="0" r="5" fill="#718093" opacity="0.6"/>
        <path d="M -5,0 L -8,-2 M 5,0 L 8,2 M 0,-5 L 2,-8 M 0,5 L -2,8" stroke="#718093" stroke-width="1" opacity="0.8"/>
        <!-- Glancing eyes -->
        <circle cx="-1.5" cy="-1" r="0.5" fill="#fff"/>
        <circle cx="1.5" cy="-1" r="0.5" fill="#fff"/>
      </g>
    

      <g transform="translate(374, 156)" class="dust-bunny" style="animation-delay:0.4s">
        <!-- Spiky dust bunny -->
        <circle cx="0" cy="0" r="5" fill="#718093" opacity="0.6"/>
        <path d="M -5,0 L -8,-2 M 5,0 L 8,2 M 0,-5 L 2,-8 M 0,5 L -2,8" stroke="#718093" stroke-width="1" opacity="0.8"/>
        <!-- Glancing eyes -->
        <circle cx="-1.5" cy="-1" r="0.5" fill="#fff"/>
        <circle cx="1.5" cy="-1" r="0.5" fill="#fff"/>
      </g>
    

      <g transform="translate(536, 144)" class="dust-bunny" style="animation-delay:0.8s">
        <!-- Spiky dust bunny -->
        <circle cx="0" cy="0" r="5" fill="#718093" opacity="0.6"/>
        <path d="M -5,0 L -8,-2 M 5,0 L 8,2 M 0,-5 L 2,-8 M 0,5 L -2,8" stroke="#718093" stroke-width="1" opacity="0.8"/>
        <!-- Glancing eyes -->
        <circle cx="-1.5" cy="-1" r="0.5" fill="#fff"/>
        <circle cx="1.5" cy="-1" r="0.5" fill="#fff"/>
      </g>
    

      <g transform="translate(698, 132)" class="dust-bunny" style="animation-delay:1.2s">
        <!-- Spiky dust bunny -->
        <circle cx="0" cy="0" r="5" fill="#718093" opacity="0.6"/>
        <path d="M -5,0 L -8,-2 M 5,0 L 8,2 M 0,-5 L 2,-8 M 0,5 L -2,8" stroke="#718093" stroke-width="1" opacity="0.8"/>
        <!-- Glancing eyes -->
        <circle cx="-1.5" cy="-1" r="0.5" fill="#fff"/>
        <circle cx="1.5" cy="-1" r="0.5" fill="#fff"/>
      </g>
    

      <g transform="translate(60, 120)" class="dust-bunny" style="animation-delay:1.6s">
        <!-- Spiky dust bunny -->
        <circle cx="0" cy="0" r="5" fill="#718093" opacity="0.6"/>
        <path d="M -5,0 L -8,-2 M 5,0 L 8,2 M 0,-5 L 2,-8 M 0,5 L -2,8" stroke="#718093" stroke-width="1" opacity="0.8"/>
        <!-- Glancing eyes -->
        <circle cx="-1.5" cy="-1" r="0.5" fill="#fff"/>
        <circle cx="1.5" cy="-1" r="0.5" fill="#fff"/>
      </g>
    

      <g transform="translate(222, 108)" class="dust-bunny" style="animation-delay:2.0s">
        <!-- Spiky dust bunny -->
        <circle cx="0" cy="0" r="5" fill="#718093" opacity="0.6"/>
        <path d="M -5,0 L -8,-2 M 5,0 L 8,2 M 0,-5 L 2,-8 M 0,5 L -2,8" stroke="#718093" stroke-width="1" opacity="0.8"/>
        <!-- Glancing eyes -->
        <circle cx="-1.5" cy="-1" r="0.5" fill="#fff"/>
        <circle cx="1.5" cy="-1" r="0.5" fill="#fff"/>
      </g>
    

      <g transform="translate(384, 96)" class="dust-bunny" style="animation-delay:2.4s">
        <!-- Spiky dust bunny -->
        <circle cx="0" cy="0" r="5" fill="#718093" opacity="0.6"/>
        <path d="M -5,0 L -8,-2 M 5,0 L 8,2 M 0,-5 L 2,-8 M 0,5 L -2,8" stroke="#718093" stroke-width="1" opacity="0.8"/>
        <!-- Glancing eyes -->
        <circle cx="-1.5" cy="-1" r="0.5" fill="#fff"/>
        <circle cx="1.5" cy="-1" r="0.5" fill="#fff"/>
      </g>
    

      <g transform="translate(546, 84)" class="dust-bunny" style="animation-delay:2.8s">
        <!-- Spiky dust bunny -->
        <circle cx="0" cy="0" r="5" fill="#718093" opacity="0.6"/>
        <path d="M -5,0 L -8,-2 M 5,0 L 8,2 M 0,-5 L 2,-8 M 0,5 L -2,8" stroke="#718093" stroke-width="1" opacity="0.8"/>
        <!-- Glancing eyes -->
        <circle cx="-1.5" cy="-1" r="0.5" fill="#fff"/>
        <circle cx="1.5" cy="-1" r="0.5" fill="#fff"/>
      </g>
    

      <g transform="translate(708, 72)" class="dust-bunny" style="animation-delay:3.2s">
        <!-- Spiky dust bunny -->
        <circle cx="0" cy="0" r="5" fill="#718093" opacity="0.6"/>
        <path d="M -5,0 L -8,-2 M 5,0 L 8,2 M 0,-5 L 2,-8 M 0,5 L -2,8" stroke="#718093" stroke-width="1" opacity="0.8"/>
        <!-- Glancing eyes -->
        <circle cx="-1.5" cy="-1" r="0.5" fill="#fff"/>
        <circle cx="1.5" cy="-1" r="0.5" fill="#fff"/>
      </g>
    

  <!-- Toys laying on ground -->
  <circle cx="708" cy="205" r="4" fill="#e74c3c" stroke="#c0392b" stroke-width="0.8"/>
              <path d="M 704.5,205 Q 708,205 711.5,205" fill="none" stroke="#fff" stroke-width="0.8"/>
  <path d="M 660,209 L 672,209 L 670,204 L 662,204 Z" fill="#95a5a6"/>
              <ellipse cx="666" cy="204" rx="4" ry="1.5" fill="#e67e22"/> <!-- food inside -->
  <circle class="plant" cx="624" cy="204" r="5" fill="#9b59b6"/>
              <path d="M 619,209 Q 614,211 612,209" fill="none" stroke="#9b59b6" stroke-width="0.8"/>

  <!-- The Pet (bobs up/down, sleeps, walks) -->
  
      <g class="pet-idle pet-egg" transform="translate(450, 210)">
        <!-- Wobbling Egg -->
        <ellipse cx="0" cy="-10" rx="8" ry="10" fill="#f5f6fa" stroke="#dcdde1" stroke-width="1.5"/>
        <!-- Egg spots -->
        <circle cx="-3" cy="-12" r="1.5" fill="#54a0ff"/>
        <circle cx="3" cy="-7" r="2" fill="#5f27cd"/>
        <circle cx="2" cy="-14" r="1" fill="#54a0ff"/>
        <!-- Crack / Sleep dots -->
        <text x="12" y="-15" font-family="monospace" font-size="8" fill="#fff" opacity="0.6">zZ</text>
      </g>
    

  <!-- Glass container glare overlays (makes it look like a physical terrarium) -->
  <rect x="10" y="10" width="880" height="240" fill="none" stroke="rgba(255,255,255,0.08)" stroke-width="1.5" rx="8"/>
  <path d="M 12,20 L 150,20 Q 200,20 180,60 L 50,60 Z" fill="rgba(255,255,255,0.03)"/>

  <!-- HUD overlay showing Tamagotchi status indicators -->
  
  <!-- Info Banner -->
  <g>
    <rect x="8" y="8" width="220" height="22" rx="4" fill="rgba(0,0,0,0.6)" stroke="rgba(255,255,255,0.1)"/>
    <text x="14" y="22" font-family="monospace" font-size="10" fill="#fff" font-weight="bold">
      👾 Dasmat13's DRAGON (Lvl EGG)
    </text>
  </g>

  <!-- Tamagotchi Status Meters (Hunger, Fun, Health) -->
  <g transform="translate(650, 8)">
    <rect x="0" y="0" width="240" height="52" rx="4" fill="rgba(0,0,0,0.6)" stroke="rgba(255,255,255,0.1)"/>
    
    <!-- Hunger Meter (Commits) -->
    <text x="8" y="16" font-family="monospace" font-size="8" fill="#fff" opacity="0.8">FOOD  [█████]</text>
    <!-- Fun Meter (Stars) -->
    <text x="8" y="30" font-family="monospace" font-size="8" fill="#fff" opacity="0.8">PLAY  [███░░]</text>
    <!-- Health Meter (Streak) -->
    <text x="8" y="44" font-family="monospace" font-size="8" fill="#fff" opacity="0.8">HEALTH[░░░░░]</text>
  </g>
  

  <style>
    /* Pet bobbing/breathing animation */
    .pet-idle {
      animation: pet-bob 4s ease-in-out infinite alternate;
    }
    @keyframes pet-bob {
      0%   { transform: translate(450px, 210px) scaleY(0.96) scaleX(1.02); }
      100% { transform: translate(450px, 204px) scaleY(1.02) scaleX(0.98); }
    }

    /* Wiggling Fox/Child tail */
    .pet-tail {
      animation: tail-wag 0.8s ease-in-out infinite alternate;
      transform-origin: -9px -6px;
    }
    @keyframes tail-wag {
      from { transform: rotate(-8deg); }
      to   { transform: rotate(10deg); }
    }

    /* Flapping dragon wings */
    .pet-wing-l {
      animation: wing-flap-l 0.6s ease-in-out infinite alternate;
      transform-origin: -6px -10px;
    }
    .pet-wing-r {
      animation: wing-flap-r 0.6s ease-in-out infinite alternate;
      transform-origin: 6px -10px;
    }
    @keyframes wing-flap-l {
      from { transform: rotate(-10deg); }
      to   { transform: rotate(15deg); }
    }
    @keyframes wing-flap-r {
      from { transform: rotate(10deg); }
      to   { transform: rotate(-15deg); }
    }

    /* Golem visor pulse */
    .golem-visor {
      animation: visor-glow 2s ease-in-out infinite alternate;
    }
    @keyframes visor-glow {
      from { fill: #00ffff; filter: brightness(0.8); }
      to   { fill: #00e5ff; filter: brightness(1.5); }
    }

    /* Waving terrarium flora */
    .plant {
      animation: flora-wave 3s ease-in-out infinite alternate;
      transform-origin: bottom center;
    }
    @keyframes flora-wave {
      from { transform: skewX(-4deg); }
      to   { transform: skewX(4deg); }
    }

    /* Dust bunnies floating */
    .dust-bunny {
      animation: bunny-float 5s ease-in-out infinite alternate;
    }
    @keyframes bunny-float {
      0%   { transform: translate(0, 0); }
      100% { transform: translate(10px, -15px) rotate(15deg); }
    }

    /* Legendary aura floating particles */
    .aura-particle {
      animation: particle-rise 2s infinite ease-in-out;
    }
    @keyframes particle-rise {
      0%   { transform: translateY(0px) scale(0.5); opacity: 0; }
      50%  { opacity: 0.8; }
      100% { transform: translateY(-20px) scale(1.1); opacity: 0; }
    }
  </style>
</svg>